<svg width="751" height="826" viewBox="0 0 751 826" fill="none" xmlns="http://www.w3.org/2000/svg">
<g opacity="0.08">
<path d="M427.166 57.5619C522.073 60.7936 610.93 98.4179 679.891 163.682C684.069 167.633 688.123 171.553 692.054 175.442C692.419 175.807 692.625 176.248 692.673 176.764C693.761 188.369 694.766 199.916 695.688 211.404C698.345 244.389 699.45 277.429 699.002 310.524C698.414 353.394 694.232 397.13 684.537 439.019C674.99 480.25 660.201 517.647 640.171 551.21C623.63 578.923 604.498 604.102 582.774 626.748C570.728 639.303 559.123 650.544 547.958 660.47C523.185 682.476 500.91 700.661 481.135 715.027C458.592 731.402 436.121 747.788 413.723 764.184C413.636 764.248 413.531 764.282 413.423 764.282C413.316 764.282 413.211 764.248 413.124 764.184C392.653 749.234 372.054 734.221 351.329 719.146C328.552 702.578 306.37 684.778 284.784 665.746C267.177 650.217 251.648 635.132 238.198 620.491C219.978 600.646 203.667 578.998 189.268 555.547C170.923 525.659 156.857 493.043 147.069 457.697C136.424 419.288 130.828 379.175 128.835 339.331C127.349 309.588 127.331 279.718 128.784 249.72C129.933 226.042 131.73 201.754 134.173 176.857C134.222 176.375 134.414 175.962 134.752 175.618C173.092 136.452 216.501 106.812 264.981 86.699C316.461 65.3469 370.523 55.6345 427.166 57.5619ZM653.624 409.118C659.54 375.84 662.4 341.985 662.658 308.47C662.658 307.768 662.896 307.065 662.896 306.312C663.041 268.481 661.296 230.791 657.661 193.243C657.628 192.897 657.471 192.574 657.217 192.334C604.446 141.38 537.592 108.01 465.017 97.3441C432.858 92.6221 400.046 92.3881 366.579 96.642C359.592 97.5299 352.75 98.6416 346.053 99.977C278.878 113.365 220.081 144.099 169.66 192.179C169.364 192.468 169.196 192.819 169.154 193.232C166.456 222.025 164.794 249.917 164.167 276.906C163.906 288.215 163.958 301.7 164.322 317.359C165.107 351.432 168.356 383.556 174.069 413.733C177.504 431.843 182.043 449.399 187.688 466.401C205.436 519.884 237.258 568.846 277.526 609.01C312.021 643.413 350.1 673.933 390.171 702.482C397.585 707.761 405.17 713.265 412.928 718.992C413.231 719.219 413.537 719.219 413.847 718.992C427.531 709.093 440.998 699.316 454.248 689.658C491.718 662.338 528.02 631.725 559.997 597.931C564.574 593.092 569.124 587.926 573.647 582.433C596.444 554.752 615.597 524.861 629.309 492.389C640.26 466.452 648.365 438.695 653.624 409.118Z" fill="#EA2127"/>
<path d="M413.713 189.939L427.208 160.812C427.394 160.42 427.504 160.44 427.538 160.874C427.71 163.214 427.759 165.813 427.683 168.669C426.705 206.032 425.831 242.294 425.06 277.454C425.053 277.846 424.936 278.2 424.709 278.517L413.754 293.932C413.719 293.985 413.671 294.027 413.616 294.057C413.56 294.086 413.497 294.101 413.434 294.101C413.37 294.101 413.306 294.086 413.249 294.057C413.192 294.027 413.142 293.985 413.104 293.932L402.304 278.817C401.968 278.345 401.781 277.784 401.767 277.206L399.072 161.535C399.045 160.193 399.313 160.131 399.878 161.349L413.125 189.939C413.149 189.997 413.19 190.046 413.243 190.08C413.295 190.115 413.356 190.133 413.419 190.133C413.481 190.133 413.543 190.115 413.595 190.08C413.647 190.046 413.688 189.997 413.713 189.939Z" fill="#EA2127"/>
<path d="M394.436 275.451L363.244 185.086C363.186 184.914 363.193 184.727 363.263 184.561C363.334 184.395 363.463 184.262 363.626 184.188L393.135 170.693C394.106 170.253 394.591 170.566 394.591 171.633L394.839 275.389C394.839 276.221 394.705 276.242 394.436 275.451Z" fill="#EA2127"/>
<path d="M463.656 184.89L432.681 274.645C432.33 275.671 432.151 275.64 432.144 274.552C431.992 240.218 432.075 205.602 432.392 170.703C432.398 170.304 432.581 170.187 432.939 170.352L463.398 184.27C463.673 184.394 463.759 184.601 463.656 184.89Z" fill="#EA2127"/>
<path d="M485.296 194.513L438.286 282.967C438.27 282.998 438.243 283.022 438.211 283.033C438.178 283.045 438.142 283.043 438.11 283.029L438.007 282.977C437.977 282.964 437.952 282.939 437.939 282.909C437.926 282.878 437.924 282.844 437.935 282.812L468.352 187.388C468.358 187.371 468.367 187.355 468.379 187.342C468.391 187.328 468.406 187.317 468.422 187.31C468.439 187.302 468.457 187.298 468.475 187.297C468.493 187.296 468.511 187.299 468.528 187.306L485.234 194.317C485.252 194.324 485.268 194.335 485.281 194.35C485.295 194.364 485.305 194.381 485.31 194.4C485.316 194.419 485.318 194.439 485.315 194.458C485.313 194.478 485.306 194.496 485.296 194.513Z" fill="#EA2127"/>
<path d="M342.026 194.141L358.04 187.409C358.091 187.388 358.146 187.379 358.201 187.381C358.257 187.383 358.311 187.396 358.362 187.42C358.412 187.444 358.457 187.479 358.494 187.521C358.531 187.564 358.559 187.613 358.577 187.667L388.912 282.874C388.926 282.918 388.923 282.966 388.904 283.008C388.884 283.05 388.85 283.083 388.807 283.102C388.765 283.12 388.717 283.121 388.673 283.106C388.629 283.09 388.593 283.059 388.571 283.019L341.747 194.905C341.561 194.547 341.654 194.292 342.026 194.141Z" fill="#EA2127"/>
<path d="M335.954 196.929L382.54 287.056C382.905 287.765 382.798 287.844 382.22 287.293C379.377 284.581 376.366 281.583 373.186 278.3C350.271 254.594 326.424 230.062 301.644 204.703C301.595 204.655 301.56 204.595 301.543 204.528C301.526 204.462 301.528 204.392 301.548 204.325C301.568 204.259 301.605 204.198 301.657 204.15C301.708 204.102 301.772 204.069 301.84 204.053L335.19 196.567C335.534 196.492 335.789 196.612 335.954 196.929Z" fill="#EA2127"/>
<path d="M444.472 286.725L490.893 196.918C491.051 196.609 491.299 196.492 491.637 196.567L524.945 204.032C525.016 204.048 525.082 204.082 525.135 204.132C525.188 204.181 525.226 204.244 525.247 204.314C525.267 204.384 525.268 204.458 525.249 204.529C525.23 204.599 525.193 204.663 525.141 204.714L444.978 287.097C443.987 288.109 443.818 287.985 444.472 286.725Z" fill="#EA2127"/>
<path d="M374.569 289.905L278.423 230.443C278.379 230.415 278.341 230.379 278.312 230.335C278.282 230.292 278.262 230.243 278.253 230.192C278.243 230.141 278.244 230.088 278.255 230.037C278.267 229.986 278.289 229.938 278.319 229.896L294.685 207.419C294.926 207.088 295.19 207.071 295.48 207.367L374.92 289.471C375.96 290.545 375.843 290.69 374.569 289.905Z" fill="#EA2127"/>
<path d="M548.248 230.547L452.865 289.534C451.179 290.573 451.024 290.38 452.401 288.955L531.377 207.367C531.652 207.078 531.91 207.095 532.151 207.419L548.361 229.721C548.616 230.065 548.578 230.34 548.248 230.547Z" fill="#EA2127"/>
<path d="M277.36 255.688L267.541 276.472C267.502 276.556 267.483 276.647 267.485 276.74C267.487 276.833 267.509 276.925 267.551 277.009L281.748 305.413C282.388 306.694 282.171 306.862 281.098 305.919L251.3 279.725C251.223 279.654 251.171 279.559 251.152 279.455C251.134 279.351 251.149 279.243 251.196 279.147L272.92 237.506C273.127 237.1 273.426 237.01 273.818 237.237C299.569 251.906 325.323 266.564 351.08 281.212C351.184 281.274 351.211 281.36 351.163 281.47V281.48C351.115 281.576 351.039 281.607 350.936 281.573C327.133 272.934 302.956 264.165 278.403 255.265C277.928 255.093 277.58 255.234 277.36 255.688Z" fill="#EA2127"/>
<path d="M548.65 255.162C524.42 263.979 500.133 272.79 475.786 281.594C475.697 281.628 475.631 281.604 475.59 281.521V281.511C475.535 281.394 475.563 281.301 475.673 281.232C501.595 266.509 527.48 251.782 553.327 237.052C553.362 237.032 553.401 237.019 553.441 237.015C553.481 237.011 553.521 237.014 553.56 237.026C553.598 237.037 553.634 237.057 553.665 237.082C553.696 237.108 553.722 237.14 553.74 237.176L575.567 279.023C575.638 279.152 575.662 279.302 575.636 279.449C575.61 279.595 575.535 279.729 575.422 279.828L545.614 306.023C544.706 306.821 544.523 306.68 545.067 305.599L559.233 277.247C559.377 276.972 559.381 276.693 559.243 276.411L549.383 255.461C549.225 255.144 548.98 255.045 548.65 255.162Z" fill="#EA2127"/>
<path d="M337.504 283.638C337.538 283.617 337.566 283.624 337.587 283.659L337.752 283.917C337.786 283.979 337.776 284.03 337.721 284.072L208.617 374.828C207.715 375.469 207.554 375.317 208.132 374.374C213.673 365.385 219.121 356.502 224.476 347.725C225.509 346.042 227.078 345.278 228.73 344.359C265.088 324.274 301.346 304.033 337.504 283.638Z" fill="#EA2127"/>
<path d="M494.918 286.891C530.56 306.811 565.885 326.511 600.894 345.991C601.266 346.194 601.576 346.489 601.792 346.848L618.694 374.374C619.272 375.317 619.107 375.472 618.199 374.839C575.357 344.704 532.322 314.445 489.095 284.062C489.019 284.013 489.005 283.951 489.053 283.876V283.865C489.109 283.783 489.177 283.766 489.26 283.814C491.139 284.805 493.025 285.831 494.918 286.891Z" fill="#EA2127"/>
<path d="M200.625 387.89C250.261 353.686 299.49 319.714 348.314 285.971C348.438 285.889 348.544 285.906 348.634 286.023H348.644C348.706 286.113 348.699 286.192 348.624 286.261C303.916 327.223 259.226 368.162 214.553 409.076C214.524 409.104 214.488 409.125 214.45 409.137C214.411 409.15 214.37 409.154 214.33 409.149C214.29 409.144 214.251 409.13 214.216 409.109C214.182 409.088 214.152 409.059 214.13 409.025L200.439 388.881C200.171 388.488 200.233 388.158 200.625 387.89Z" fill="#EA2127"/>
<path d="M626.459 388.757L612.975 408.643C612.672 409.09 612.324 409.131 611.932 408.767C567.321 367.886 522.796 327.099 478.358 286.405C478.275 286.329 478.272 286.243 478.347 286.147V286.137C478.423 286.04 478.512 286.03 478.616 286.106C527.866 320.082 577.099 354.034 626.315 387.962C626.631 388.175 626.68 388.44 626.459 388.757Z" fill="#EA2127"/>
<path d="M233.295 418.854C243.682 438.306 254.021 457.738 264.311 477.149C264.352 477.232 264.335 477.297 264.259 477.345L264.249 477.356C264.132 477.431 264.029 477.411 263.939 477.294C248.562 456.313 233.112 435.271 217.59 414.167C217.491 414.035 217.445 413.87 217.46 413.704C217.475 413.539 217.551 413.383 217.673 413.268C264.342 371.321 311.015 329.357 357.69 287.376C357.78 287.3 357.866 287.303 357.949 287.386V287.396C358.031 287.479 358.031 287.561 357.949 287.644C316.414 331.057 274.911 374.426 233.439 417.749C233.123 418.08 233.075 418.448 233.295 418.854Z" fill="#EA2127"/>
<path d="M593.563 417.946C552.077 374.574 510.516 331.147 468.878 287.665C468.796 287.582 468.796 287.5 468.878 287.417L468.889 287.407C468.971 287.317 469.057 287.314 469.147 287.396C515.864 329.392 562.506 371.328 609.071 413.207C609.218 413.34 609.311 413.523 609.332 413.719C609.353 413.915 609.301 414.112 609.185 414.27L562.836 477.314C562.774 477.39 562.705 477.404 562.629 477.356L562.382 477.201C562.361 477.187 562.357 477.17 562.371 477.149C572.827 457.8 583.255 438.286 593.656 418.606C593.711 418.5 593.731 418.38 593.715 418.261C593.698 418.143 593.645 418.033 593.563 417.946Z" fill="#EA2127"/>
<path d="M248.42 309.709L257.97 293.406C257.993 293.365 258.025 293.33 258.062 293.302C258.1 293.274 258.143 293.254 258.188 293.243C258.234 293.233 258.281 293.232 258.327 293.24C258.373 293.248 258.417 293.266 258.455 293.292L275.254 304.949C275.311 304.987 275.355 305.041 275.381 305.105C275.406 305.168 275.412 305.238 275.398 305.304C275.383 305.371 275.349 305.432 275.3 305.479C275.25 305.526 275.187 305.557 275.12 305.568L248.771 310.225C248.705 310.237 248.638 310.23 248.577 310.205C248.516 310.179 248.463 310.136 248.426 310.082C248.389 310.027 248.368 309.963 248.367 309.896C248.366 309.83 248.384 309.765 248.42 309.709Z" fill="#EA2127"/>
<path d="M551.654 304.928L568.319 293.292C568.36 293.264 568.406 293.244 568.455 293.235C568.503 293.225 568.553 293.226 568.602 293.236C568.65 293.247 568.696 293.268 568.736 293.297C568.776 293.326 568.81 293.363 568.835 293.406L578.427 309.698C578.461 309.758 578.478 309.825 578.475 309.894C578.472 309.962 578.45 310.028 578.411 310.084C578.372 310.141 578.318 310.185 578.255 310.211C578.192 310.238 578.123 310.246 578.055 310.235L551.799 305.579C551.729 305.566 551.664 305.533 551.613 305.484C551.562 305.434 551.526 305.371 551.511 305.301C551.495 305.232 551.501 305.16 551.526 305.093C551.552 305.027 551.596 304.969 551.654 304.928Z" fill="#EA2127"/>
<path d="M232.715 334.375L243.474 316.874C243.687 316.53 243.99 316.317 244.382 316.234L282.316 308.067C283.734 307.757 283.803 307.943 282.523 308.625L233.107 334.799C232.467 335.136 232.336 334.995 232.715 334.375Z" fill="#EA2127"/>
<path d="M593.616 334.747L544.645 308.79C543.137 307.991 543.216 307.775 544.882 308.139L582.702 316.286C582.921 316.339 583.111 316.476 583.229 316.668L594.07 334.272C594.504 334.981 594.352 335.139 593.616 334.747Z" fill="#EA2127"/>
<path d="M339.93 355.975L327.974 334.995C327.943 334.94 327.929 334.877 327.932 334.814C327.936 334.752 327.958 334.691 327.995 334.64C328.031 334.589 328.082 334.55 328.141 334.527C328.199 334.503 328.263 334.497 328.325 334.509L365.815 341.53C365.888 341.546 365.953 341.586 366.001 341.644L387.735 367.281C387.767 367.319 387.79 367.364 387.803 367.412C387.815 367.46 387.817 367.511 387.807 367.56L382.913 391.617C382.896 391.688 382.856 391.752 382.798 391.798C382.741 391.844 382.67 391.87 382.597 391.871C382.524 391.872 382.452 391.849 382.393 391.804C382.334 391.76 382.292 391.698 382.273 391.627L375.531 362.48C375.517 362.415 375.484 362.355 375.436 362.309C375.388 362.263 375.328 362.233 375.262 362.222L340.157 356.14C340.11 356.131 340.064 356.112 340.025 356.083C339.986 356.054 339.953 356.018 339.93 355.975Z" fill="#EA2127"/>
<path d="M451.264 362.841C449.117 371.92 447.024 380.807 444.987 389.5C444.815 390.23 444.736 390.973 444.749 391.73C444.756 392.137 444.612 392.199 444.316 391.916C444.061 391.682 443.899 391.393 443.83 391.049C442.24 383.257 440.654 375.568 439.071 367.983C438.995 367.632 439.074 367.315 439.308 367.033L460.598 341.912C460.812 341.665 461.073 341.513 461.383 341.458L498.553 334.509C498.61 334.497 498.669 334.502 498.723 334.523C498.777 334.544 498.823 334.58 498.857 334.627C498.891 334.674 498.911 334.73 498.913 334.788C498.916 334.846 498.902 334.903 498.873 334.953L487.133 355.583C486.934 355.941 486.634 356.154 486.235 356.223L452.008 362.139C451.609 362.208 451.361 362.442 451.264 362.841Z" fill="#EA2127"/>
<path d="M516.755 380.993L514.958 342.119C514.951 341.871 515.047 341.82 515.247 341.964C515.337 342.026 515.398 342.109 515.433 342.212C520.231 358.174 524.994 373.824 529.723 389.16C529.812 389.463 529.754 389.731 529.547 389.965L477.375 450.841C477.331 450.896 477.273 450.937 477.208 450.962C477.143 450.987 477.071 450.993 477.002 450.982C476.932 450.971 476.866 450.941 476.81 450.897C476.754 450.852 476.71 450.794 476.683 450.728L470.034 434.104C469.903 433.774 469.958 433.471 470.199 433.196L516.414 381.943C516.662 381.674 516.775 381.357 516.755 380.993Z" fill="#EA2127"/>
<path d="M310.544 382.087L356.697 433.278C356.904 433.512 356.935 433.767 356.79 434.042L347.549 451.616C347.315 452.056 347.04 452.08 346.723 451.688L297.37 390.11C297.122 389.8 297.056 389.456 297.173 389.077L310.885 344.019C311.587 341.699 311.883 341.751 311.773 344.174L310.09 380.817C310.069 381.306 310.221 381.729 310.544 382.087Z" fill="#EA2127"/>
<path d="M254.51 430.584C262.943 452.934 271.392 475.319 279.858 497.738C279.893 497.834 279.862 497.903 279.765 497.944C279.648 497.999 279.562 497.968 279.507 497.851C267.117 472.39 254.555 446.639 241.821 420.599C241.677 420.297 241.721 420.021 241.955 419.773L297.235 361.489C297.786 360.911 297.937 361 297.69 361.757C294.62 371.181 291.619 380.573 288.686 389.934C288.184 391.517 287.365 392.949 286.229 394.229C275.642 406.11 265.114 417.987 254.645 429.861C254.459 430.074 254.414 430.315 254.51 430.584Z" fill="#EA2127"/>
<path d="M572.015 429.664C561.442 417.687 550.907 405.793 540.41 393.981C539.44 392.887 538.714 391.586 538.232 390.078C535.121 380.338 532.095 370.901 529.156 361.767C528.908 361.01 529.06 360.921 529.61 361.499L584.643 419.515C585.021 419.921 585.09 420.375 584.849 420.878C573.905 443.331 562.94 465.85 551.954 488.434C550.412 491.621 549.049 494.309 547.865 496.498C546.929 498.24 546.812 498.185 547.514 496.333L572.232 430.811C572.39 430.384 572.318 430.002 572.015 429.664Z" fill="#EA2127"/>
<path d="M279.745 450.583C279.545 450.817 279.48 451.085 279.549 451.388C284.821 473.105 289.991 494.643 295.057 516.002C295.077 516.092 295.046 516.15 294.964 516.178H294.953C294.836 516.212 294.754 516.171 294.706 516.054C283.637 488.142 272.603 460.409 261.604 432.855C261.363 432.249 261.459 431.705 261.893 431.223L292.031 398.08C292.341 397.736 292.634 397.75 292.909 398.122L307.87 418.266C307.934 418.354 307.967 418.461 307.961 418.571C307.955 418.68 307.912 418.783 307.839 418.864L279.745 450.583Z" fill="#EA2127"/>
<path d="M518.779 418.483L534.246 397.719C534.257 397.704 534.271 397.691 534.288 397.681C534.304 397.672 534.323 397.667 534.342 397.666C534.36 397.665 534.379 397.668 534.397 397.676C534.414 397.683 534.43 397.694 534.442 397.709L565.531 431.854C565.547 431.872 565.557 431.894 565.561 431.918C565.565 431.942 565.561 431.966 565.551 431.988L532.119 515.982C532.107 516.011 532.085 516.035 532.056 516.049C532.027 516.062 531.994 516.064 531.964 516.054L531.861 516.023C531.834 516.012 531.811 515.991 531.798 515.964C531.785 515.938 531.781 515.907 531.789 515.879L547.369 450.955C547.374 450.935 547.373 450.914 547.368 450.894C547.363 450.874 547.352 450.856 547.338 450.841L518.779 418.638C518.762 418.616 518.752 418.588 518.752 418.56C518.752 418.532 518.762 418.505 518.779 418.483Z" fill="#EA2127"/>
<path d="M413.071 463.592L402.323 487.681C402.227 487.895 402.082 488.086 401.9 488.236C401.717 488.386 401.502 488.493 401.27 488.548L376.345 494.474C375.988 494.564 375.726 494.44 375.561 494.103L368.88 480.525C368.722 480.188 368.825 479.988 369.19 479.927L391.358 475.91C391.936 475.807 392.466 475.593 392.948 475.27L412.431 462.271C412.467 462.247 412.498 462.216 412.522 462.18C412.545 462.144 412.562 462.104 412.569 462.061C412.577 462.019 412.576 461.975 412.567 461.933C412.557 461.891 412.539 461.851 412.514 461.816L400.496 445.586C400.11 445.069 399.621 444.687 399.029 444.439L383.325 437.873C382.94 437.708 382.716 437.418 382.654 437.005L380.393 422.334C380.324 421.879 380.517 421.68 380.971 421.735L405.338 424.646C405.751 424.695 406.078 424.887 406.319 425.225L413.061 434.755C413.102 434.812 413.156 434.859 413.219 434.891C413.282 434.924 413.352 434.941 413.423 434.941C413.493 434.941 413.563 434.924 413.626 434.891C413.689 434.859 413.743 434.812 413.784 434.755L420.516 425.214C420.743 424.891 421.053 424.705 421.445 424.657L446.029 421.714C446.09 421.705 446.153 421.711 446.211 421.731C446.27 421.75 446.323 421.784 446.367 421.828C446.41 421.872 446.442 421.926 446.461 421.986C446.479 422.045 446.483 422.107 446.473 422.168L444.191 436.995C444.122 437.415 443.892 437.708 443.499 437.873L427.454 444.584C427.103 444.729 426.818 444.952 426.597 445.255L414.331 461.796C414.306 461.83 414.288 461.869 414.279 461.91C414.27 461.951 414.269 461.994 414.276 462.036C414.284 462.077 414.3 462.117 414.324 462.152C414.348 462.187 414.378 462.217 414.414 462.24C420.23 466.088 426.398 470.214 432.916 474.619C434.086 475.411 435.37 475.931 436.767 476.179C443.754 477.411 450.682 478.646 457.552 479.885C457.965 479.961 458.078 480.185 457.892 480.556L451.264 494.196C451.126 494.478 450.906 494.585 450.603 494.516L425.689 488.579C425.422 488.515 425.173 488.39 424.962 488.214C424.751 488.039 424.583 487.818 424.47 487.567L413.753 463.592C413.526 463.083 413.299 463.083 413.071 463.592Z" fill="#EA2127"/>
<path d="M299.219 472.193C301.49 489.518 303.769 506.84 306.054 524.159C306.068 524.255 306.027 524.314 305.93 524.334H305.92C305.824 524.355 305.762 524.317 305.734 524.221C299.456 500.927 293.199 477.669 286.963 454.444C286.867 454.073 286.939 453.732 287.18 453.422L310.711 424.027C311.02 423.634 311.344 423.624 311.681 423.996L325.228 438.874C325.322 438.978 325.376 439.111 325.379 439.25C325.383 439.388 325.337 439.523 325.248 439.628L299.56 471.006C299.271 471.35 299.157 471.746 299.219 472.193Z" fill="#EA2127"/>
<path d="M527.463 471.223L501.62 439.68C501.386 439.391 501.393 439.108 501.64 438.833L515.342 423.79C515.38 423.748 515.427 423.714 515.478 423.692C515.53 423.669 515.586 423.658 515.642 423.659C515.698 423.66 515.753 423.673 515.802 423.698C515.852 423.722 515.896 423.757 515.93 423.8L539.667 453.443C539.779 453.584 539.857 453.749 539.895 453.927C539.933 454.104 539.929 454.288 539.884 454.465C533.758 477.208 527.532 500.349 521.206 523.89C521.172 524.021 521.089 524.073 520.958 524.045H520.948C520.852 524.025 520.81 523.966 520.824 523.87C523.109 506.538 525.388 489.219 527.659 471.914C527.676 471.791 527.667 471.665 527.633 471.546C527.599 471.427 527.541 471.317 527.463 471.223Z" fill="#EA2127"/>
<path d="M315.811 486.824C317.105 503.433 318.392 519.733 319.672 535.723C319.81 537.409 319.824 539.202 319.714 541.102C319.679 541.791 319.569 541.801 319.383 541.133C319.135 540.245 319.156 539.182 318.929 538.252C314.007 517.63 309.093 497.011 304.185 476.395C304.102 476.065 304.168 475.769 304.381 475.507L328.986 445.142C329.233 444.839 329.485 444.835 329.739 445.131L337.4 454.042C337.493 454.152 337.547 454.289 337.554 454.432C337.562 454.576 337.522 454.718 337.442 454.837L316.121 485.678C315.887 486.022 315.783 486.404 315.811 486.824Z" fill="#EA2127"/>
<path d="M510.767 485.76L489.498 454.982C489.25 454.617 489.267 454.269 489.55 453.939L497.149 445.07C497.188 445.023 497.238 444.985 497.294 444.96C497.349 444.934 497.41 444.922 497.471 444.923C497.533 444.924 497.593 444.938 497.648 444.965C497.703 444.993 497.751 445.032 497.789 445.08L522.538 475.611C522.615 475.704 522.669 475.814 522.696 475.932C522.723 476.051 522.722 476.174 522.693 476.292C517.462 498.161 512.237 520.067 507.02 542.011C506.992 542.121 506.927 542.166 506.823 542.145H506.813C506.73 542.131 506.693 542.087 506.699 542.011C508.124 523.529 509.573 505.127 511.046 486.803C511.074 486.425 510.981 486.077 510.767 485.76Z" fill="#EA2127"/>
<path d="M348.117 497.2L369.335 516.549C370.815 517.899 370.656 518.136 368.86 517.262L321.489 494.247C321.427 494.218 321.372 494.177 321.328 494.125C321.284 494.073 321.251 494.013 321.231 493.948C321.212 493.882 321.206 493.814 321.215 493.746C321.224 493.679 321.247 493.614 321.282 493.556L341.839 459.452C342.08 459.053 342.338 459.039 342.614 459.411L350.719 470.324C350.946 470.627 351.035 470.965 350.987 471.336L347.683 496.013C347.621 496.488 347.766 496.884 348.117 497.2Z" fill="#EA2127"/>
<path d="M478.637 497.262C478.828 497.091 478.975 496.875 479.063 496.634C479.151 496.392 479.179 496.133 479.143 495.879L475.839 471.316C475.791 470.965 475.87 470.651 476.077 470.376L484.192 459.432C484.488 459.032 484.764 459.043 485.018 459.462L505.524 493.525C505.561 493.587 505.585 493.656 505.595 493.729C505.604 493.801 505.599 493.874 505.578 493.944C505.558 494.014 505.523 494.079 505.476 494.134C505.43 494.19 505.372 494.236 505.307 494.268L457.254 517.613C455.94 518.253 455.823 518.081 456.903 517.097L478.637 497.262Z" fill="#EA2127"/>
<path d="M387.611 511.418C387.707 511.384 387.8 511.342 387.89 511.294C388.013 511.225 388.144 511.187 388.282 511.18C394.188 510.967 399.867 510.699 405.318 510.375C416.572 509.714 427.982 510.767 439.391 511.253C439.721 511.267 439.983 511.139 440.175 510.871L449.581 497.882C450.16 497.083 450.401 497.176 450.304 498.161L447.898 522.672C447.883 522.829 447.826 522.981 447.734 523.111C447.642 523.241 447.517 523.346 447.372 523.416L413.919 538.975C413.582 539.134 413.244 539.134 412.907 538.975L379.454 523.405C379.151 523.261 378.986 523.027 378.958 522.703L376.47 497.603C376.408 496.963 376.566 496.904 376.945 497.428L386.867 511.17C386.948 511.284 387.063 511.37 387.197 511.414C387.33 511.459 387.475 511.46 387.611 511.418Z" fill="#EA2127"/>
<path d="M324.091 531.2L321.871 503.096C321.864 503.024 321.877 502.951 321.909 502.886C321.94 502.821 321.988 502.765 322.048 502.725C322.109 502.685 322.179 502.662 322.251 502.658C322.323 502.654 322.395 502.67 322.459 502.704L344.359 513.534C344.435 513.573 344.497 513.635 344.536 513.711C344.575 513.787 344.589 513.873 344.575 513.958L340.053 544.231C340.043 544.302 340.013 544.369 339.968 544.425C339.923 544.482 339.863 544.525 339.796 544.55C339.728 544.575 339.655 544.582 339.584 544.569C339.513 544.557 339.447 544.525 339.392 544.478L324.225 531.469C324.147 531.4 324.099 531.304 324.091 531.2Z" fill="#EA2127"/>
<path d="M486.794 544.324L482.251 513.865C482.242 513.796 482.255 513.726 482.288 513.665C482.322 513.603 482.374 513.554 482.437 513.524L504.491 502.693C504.543 502.668 504.601 502.656 504.659 502.66C504.717 502.664 504.773 502.684 504.821 502.716C504.869 502.749 504.908 502.793 504.933 502.845C504.959 502.898 504.97 502.956 504.966 503.013L502.736 531.283C502.733 531.327 502.721 531.369 502.701 531.408C502.682 531.447 502.655 531.482 502.622 531.51L487.331 544.53C487.285 544.567 487.231 544.592 487.174 544.601C487.116 544.611 487.057 544.605 487.002 544.584C486.947 544.563 486.899 544.527 486.863 544.482C486.826 544.436 486.802 544.382 486.794 544.324Z" fill="#EA2127"/>
<path d="M343.606 547.834L349.234 516.384C349.242 516.329 349.264 516.278 349.296 516.233C349.329 516.188 349.371 516.151 349.421 516.126C349.47 516.101 349.525 516.088 349.58 516.088C349.636 516.088 349.69 516.101 349.74 516.126L367.571 525.047C367.641 525.082 367.698 525.14 367.732 525.211C367.765 525.282 367.774 525.362 367.757 525.439L359.796 561.215C359.782 561.274 359.753 561.327 359.713 561.371C359.672 561.415 359.621 561.448 359.564 561.467C359.507 561.485 359.446 561.489 359.388 561.478C359.329 561.466 359.274 561.44 359.228 561.401L343.73 548.164C343.682 548.125 343.646 548.074 343.624 548.016C343.602 547.958 343.596 547.895 343.606 547.834Z" fill="#EA2127"/>
<path d="M467.03 561.123L459.059 525.419C459.039 525.33 459.049 525.236 459.088 525.154C459.128 525.071 459.194 525.004 459.276 524.965L477.056 516.219C477.112 516.193 477.172 516.18 477.234 516.181C477.295 516.182 477.356 516.197 477.411 516.225C477.466 516.252 477.513 516.293 477.55 516.342C477.587 516.391 477.612 516.448 477.624 516.508L483.22 547.824C483.233 547.894 483.228 547.966 483.204 548.033C483.181 548.1 483.14 548.16 483.086 548.206L467.681 561.34C467.628 561.384 467.565 561.414 467.497 561.426C467.43 561.439 467.36 561.435 467.295 561.413C467.23 561.391 467.171 561.353 467.125 561.302C467.079 561.252 467.046 561.19 467.03 561.123Z" fill="#EA2127"/>
<path d="M364.327 565.531L373.259 528.269C373.27 528.218 373.293 528.171 373.326 528.131C373.358 528.091 373.399 528.059 373.446 528.037C373.493 528.015 373.544 528.004 373.595 528.005C373.647 528.006 373.698 528.018 373.744 528.041L396.211 539.141C396.281 539.176 396.337 539.234 396.369 539.306C396.4 539.377 396.407 539.457 396.387 539.533L384.812 582.63C384.797 582.686 384.768 582.738 384.727 582.779C384.687 582.821 384.636 582.852 384.58 582.869C384.524 582.885 384.465 582.887 384.408 582.874C384.351 582.861 384.298 582.834 384.255 582.795L364.431 565.872C364.384 565.83 364.349 565.777 364.331 565.716C364.313 565.656 364.312 565.592 364.327 565.531Z" fill="#EA2127"/>
<path d="M442.025 582.64L430.461 539.564C430.441 539.488 430.447 539.408 430.479 539.336C430.511 539.265 430.566 539.207 430.636 539.171L453.083 528.01C453.129 527.987 453.18 527.974 453.231 527.974C453.283 527.973 453.334 527.984 453.381 528.006C453.427 528.028 453.469 528.06 453.501 528.1C453.534 528.14 453.557 528.187 453.568 528.237L462.51 565.511C462.526 565.571 462.524 565.635 462.506 565.695C462.488 565.756 462.453 565.809 462.406 565.851L442.582 582.815C442.538 582.854 442.485 582.881 442.427 582.894C442.37 582.906 442.31 582.903 442.254 582.885C442.198 582.868 442.147 582.836 442.107 582.793C442.067 582.75 442.039 582.697 442.025 582.64Z" fill="#EA2127"/>
<path d="M413.611 547.597L427.095 540.844C427.142 540.821 427.193 540.809 427.246 540.809C427.298 540.808 427.349 540.82 427.396 540.843C427.443 540.866 427.484 540.9 427.516 540.941C427.548 540.982 427.57 541.03 427.58 541.082L437.389 587.028C437.402 587.088 437.398 587.15 437.378 587.209C437.358 587.267 437.322 587.318 437.275 587.358L413.631 607.554C413.57 607.604 413.494 607.632 413.414 607.632C413.335 607.632 413.259 607.604 413.198 607.554L389.574 587.338C389.527 587.298 389.492 587.246 389.472 587.188C389.452 587.13 389.448 587.067 389.46 587.007L399.238 541.123C399.25 541.073 399.273 541.026 399.305 540.986C399.338 540.945 399.379 540.913 399.426 540.891C399.472 540.869 399.523 540.859 399.575 540.859C399.627 540.86 399.677 540.872 399.723 540.896L413.301 547.597C413.349 547.621 413.402 547.634 413.456 547.634C413.51 547.634 413.563 547.621 413.611 547.597Z" fill="#EA2127"/>
</g>
</svg>
