<svg width="17" height="16" viewBox="0 0 17 16" fill="none" xmlns="http://www.w3.org/2000/svg">
<path d="M16.5 16.0001V10.1401C16.5 7.26006 15.88 5.06006 12.52 5.06006C10.9 5.06006 9.81997 5.94006 9.37997 6.78006H9.33997V5.32006H6.15997V16.0001H9.47997V10.7001C9.47997 9.30006 9.73997 7.96006 11.46 7.96006C13.16 7.96006 13.18 9.54006 13.18 10.7801V15.9801H16.5V16.0001Z" fill="white"/>
<path d="M0.76001 5.31982H4.08001V15.9998H0.76001V5.31982Z" fill="white"/>
<path d="M2.42 0C1.36 0 0.5 0.86 0.5 1.92C0.5 2.98 1.36 3.86 2.42 3.86C3.48 3.86 4.34 2.98 4.34 1.92C4.34 0.86 3.48 0 2.42 0Z" fill="white"/>
</svg>
