<svg width="268" height="21" viewBox="0 0 268 21" fill="none" xmlns="http://www.w3.org/2000/svg">
<rect x="0.5" y="0.5" width="31" height="19" rx="1.5" fill="white"/>
<rect x="0.5" y="0.5" width="31" height="19" rx="1.5" stroke="#D1D1D1"/>
<path d="M11.0742 13.9767L12.6083 5.40527H15.0053L13.5192 13.9767H11.0742Z" fill="#3C58BF"/>
<path d="M11.0742 13.9767L13.0398 5.40527H15.0053L13.5192 13.9767H11.0742Z" fill="#293688"/>
<path d="M22.1963 5.50009C21.7169 5.30962 20.9498 5.11914 19.991 5.11914C17.594 5.11914 15.8682 6.30962 15.8682 8.0239C15.8682 9.30962 17.0667 9.97628 18.0255 10.4049C18.9843 10.8334 19.2719 11.1191 19.2719 11.5001C19.2719 12.0715 18.5049 12.3572 17.8337 12.3572C16.8749 12.3572 16.3476 12.2144 15.5326 11.881L15.197 11.7382L14.8615 13.6906C15.4367 13.9287 16.4914 14.1668 17.594 14.1668C20.1349 14.1668 21.8128 12.9763 21.8128 11.1668C21.8128 10.1668 21.1895 9.40485 19.7513 8.78581C18.8884 8.35724 18.3611 8.11914 18.3611 7.69057C18.3611 7.30962 18.7925 6.92866 19.7513 6.92866C20.5663 6.92866 21.1416 7.07152 21.5731 7.262L21.8128 7.35724L22.1963 5.50009Z" fill="#3C58BF"/>
<path d="M22.1963 5.50009C21.7169 5.30962 20.9498 5.11914 19.991 5.11914C17.594 5.11914 16.2997 6.30962 16.2997 8.0239C16.2997 9.30962 17.0667 9.97628 18.0255 10.4049C18.9843 10.8334 19.2719 11.1191 19.2719 11.5001C19.2719 12.0715 18.5049 12.3572 17.8337 12.3572C16.8749 12.3572 16.3476 12.2144 15.5326 11.881L15.197 11.7382L14.8615 13.6906C15.4367 13.9287 16.4914 14.1668 17.594 14.1668C20.1349 14.1668 21.8128 12.9763 21.8128 11.1668C21.8128 10.1668 21.1895 9.40485 19.7513 8.78581C18.8884 8.35724 18.3611 8.11914 18.3611 7.69057C18.3611 7.30962 18.7925 6.92866 19.7513 6.92866C20.5663 6.92866 21.1416 7.07152 21.5731 7.262L21.8128 7.35724L22.1963 5.50009Z" fill="#293688"/>
<path d="M26.3185 5.40527C25.7432 5.40527 25.3118 5.45289 25.0721 6.02432L21.4766 13.9767H24.0653L24.5447 12.5481H27.6129L27.9005 13.9767H30.2017L28.1882 5.40527H26.3185ZM25.2159 11.1196C25.3597 10.691 26.1747 8.59575 26.1747 8.59575C26.1747 8.59575 26.3665 8.07194 26.5103 7.73861L26.6541 8.54813C26.6541 8.54813 27.1335 10.691 27.2294 11.1672H25.2159V11.1196Z" fill="#3C58BF"/>
<path d="M26.8938 5.40527C26.3185 5.40527 25.8871 5.45289 25.6473 6.02432L21.4766 13.9767H24.0653L24.5447 12.5481H27.6129L27.9005 13.9767H30.2017L28.1882 5.40527H26.8938ZM25.2159 11.1196C25.4076 10.6434 26.1747 8.59575 26.1747 8.59575C26.1747 8.59575 26.3665 8.07194 26.5103 7.73861L26.6541 8.54813C26.6541 8.54813 27.1335 10.691 27.2294 11.1672H25.2159V11.1196Z" fill="#293688"/>
<path d="M6.66374 11.4045L6.42404 10.1664C5.99258 8.73786 4.60232 7.16643 3.06824 6.40453L5.22554 14.0236H7.8143L11.6975 5.45215H9.10869L6.66374 11.4045Z" fill="#3C58BF"/>
<path d="M6.66374 11.4045L6.42404 10.1664C5.99258 8.73786 4.60232 7.16643 3.06824 6.40453L5.22554 14.0236H7.8143L11.6975 5.45215H9.58809L6.66374 11.4045Z" fill="#293688"/>
<path d="M0 5.40527L0.431461 5.50051C3.49963 6.2148 5.60899 8.02432 6.42397 10.1672L5.56105 6.11956C5.41723 5.54813 4.98577 5.40527 4.45843 5.40527H0Z" fill="#FFBC00"/>
<path d="M0 5.40527C3.06817 6.11956 5.60899 7.9767 6.42397 10.1196L5.60899 6.73861C5.46517 6.16718 4.98577 5.83385 4.45843 5.83385L0 5.40527Z" fill="#F7981D"/>
<path d="M0 5.40527C3.06817 6.11956 5.60899 7.9767 6.42397 10.1196L5.84869 8.26242C5.70487 7.69099 5.51311 7.11956 4.84195 6.88146L0 5.40527Z" fill="#ED7C00"/>
<path d="M9.06072 11.1193L7.43076 9.50028L6.66372 11.3098L6.47196 10.1193C6.04049 8.69076 4.65023 7.11933 3.11615 6.35742L5.27345 13.9765H7.86222L9.06072 11.1193Z" fill="#051244"/>
<path d="M13.5192 13.9771L11.4578 11.8818L11.0743 13.9771H13.5192Z" fill="#051244"/>
<path d="M19.0321 11.0244C19.2238 11.2149 19.3197 11.3577 19.2718 11.5482C19.2718 12.1197 18.5047 12.4054 17.8336 12.4054C16.8748 12.4054 16.3474 12.2625 15.5324 11.9292L15.1968 11.7863L14.8613 13.7387C15.4365 13.9768 16.4912 14.2149 17.5939 14.2149C19.1279 14.2149 20.3744 13.7863 21.0935 13.0244L19.0321 11.0244Z" fill="#051244"/>
<path d="M21.8124 13.9764H24.0656L24.545 12.5478H27.6132L27.9008 13.9764H30.202L29.387 10.5002L26.5106 7.73828L26.6544 8.50019C26.6544 8.50019 27.1338 10.643 27.2297 11.1192H25.2162C25.4079 10.643 26.175 8.59542 26.175 8.59542C26.175 8.59542 26.3667 8.07161 26.5106 7.73828" fill="#051244"/>
<g clip-path="url(#clip0_0_765)">
<path d="M47.5522 7.20607C47.4941 6.75533 47.7191 6.27584 47.9736 5.98265C48.2568 5.63944 48.7463 5.395 49.1476 5.375C49.1964 5.84511 49.0107 6.30522 48.7363 6.64781C48.4524 6.98101 48.0029 7.24482 47.5522 7.20607Z" fill="black"/>
<path d="M50.8008 11.2093C50.7908 11.2387 50.6351 11.7757 50.2544 12.3321C49.9224 12.8204 49.5811 13.2986 49.0347 13.3086C48.5077 13.3186 48.3321 12.996 47.7269 12.996C47.1218 12.996 46.9267 13.2986 46.4291 13.3186C45.9021 13.338 45.5026 12.8004 45.1707 12.3127C44.4874 11.3263 43.9704 9.53019 44.6731 8.31928C45.0144 7.71413 45.6389 7.33342 46.3122 7.32341C46.8292 7.31404 47.3074 7.66537 47.62 7.66537C47.932 7.66537 48.4877 7.25527 49.1416 7.29466C49.3954 7.31404 50.1275 7.39218 50.5957 8.08485C50.557 8.11485 49.7274 8.59309 49.7374 9.59834C49.7468 10.7992 50.7908 11.1993 50.8008 11.2093Z" fill="black"/>
<path d="M54.8353 5.93359H52.0896V13.2572H53.2261V10.7554H54.7996C56.2362 10.7554 57.2458 9.77077 57.2458 8.33917C57.2458 6.9132 56.2569 5.93359 54.8353 5.93359ZM54.5308 9.80077H53.2261V6.89257H54.5358C55.5204 6.89257 56.0837 7.42083 56.0837 8.34417C56.0837 9.26814 55.5204 9.80077 54.5308 9.80077Z" fill="black"/>
<path d="M59.9585 7.82129C58.6389 7.82129 57.8168 8.53209 57.7561 9.49607H58.7914C58.8877 9.01908 59.2834 8.71463 59.9179 8.71463C60.5881 8.71463 60.9888 9.06971 60.9888 9.66361V10.075L59.5272 10.1612C58.2581 10.2325 57.543 10.8058 57.543 11.7397C57.543 12.6987 58.2738 13.3489 59.319 13.3489C60.0198 13.3489 60.695 12.9732 61.0044 12.3793H61.0294V13.257H62.0803V9.57734C62.0803 8.50645 61.2532 7.82129 59.9585 7.82129ZM60.9888 11.2577C60.9888 11.9529 60.3899 12.4805 59.6235 12.4805C59.0352 12.4805 58.6495 12.1761 58.6495 11.7091C58.6495 11.2527 59.0196 10.9633 59.6741 10.9177L60.9888 10.8364V11.2577Z" fill="black"/>
<path d="M66.4534 7.91797H67.6105L65.6107 13.5368C65.1537 14.8309 64.626 15.2472 63.5195 15.2472C63.4283 15.2472 63.1538 15.2372 63.0732 15.2222V14.3339C63.1538 14.3539 63.3364 14.3539 63.4283 14.3539C63.9359 14.3539 64.2097 14.1407 64.3772 13.5925C64.3772 13.5825 64.4735 13.268 64.4735 13.263L62.5449 7.91797H63.7327L65.083 12.2628H65.103L66.4534 7.91797Z" fill="black"/>
<path d="M71.9994 2.29526C71.9966 1.80539 71.9825 1.29083 71.7537 0.845539C71.569 0.486015 71.2729 0.187881 70.9129 0.00408696C70.4639 -0.225156 69.9558 -0.238721 69.4625 -0.241597C69.3531 -0.242222 69.2437 -0.242222 69.1343 -0.242222H42.8668C42.4654 -0.242222 42.0568 -0.255288 41.6602 -0.184083C41.2624 -0.112504 40.8877 0.0720405 40.6006 0.357922C40.3133 0.64399 40.1299 1.02077 40.0586 1.41755C39.9873 1.81433 40.0011 2.22256 40.0011 2.62409V17.3783C40.0011 17.4877 40.0005 17.5971 40.0011 17.7065C40.0039 18.1985 40.0185 18.7088 40.2468 19.1562C40.4303 19.516 40.7278 19.8149 41.0882 19.9976C41.5371 20.2252 42.0464 20.237 42.5386 20.2427C42.6473 20.2439 42.7574 20.2439 42.8668 20.2439H69.1343C69.2437 20.2439 69.3531 20.2439 69.4625 20.2427C69.9507 20.2371 70.462 20.2269 70.9129 19.9976C71.2724 19.8148 71.5714 19.5158 71.7537 19.1562C71.9804 18.7089 71.9966 18.1975 71.9994 17.7065C72 17.5971 72 17.4877 72 17.3783V2.62409C72 2.51406 72 2.40466 71.9994 2.29526ZM71.3174 17.3783C71.3174 17.4858 71.3174 17.5933 71.3167 17.7033C71.3145 18.0847 71.3225 18.4982 71.1454 18.8467C71.0275 19.0789 70.834 19.2715 70.6022 19.3894C70.2532 19.5667 69.8392 19.5578 69.4575 19.56C69.35 19.5607 69.2419 19.5607 69.1343 19.5607H42.8624C42.7561 19.5607 42.6498 19.5607 42.5417 19.56C42.1594 19.5573 41.7464 19.5664 41.397 19.3881C41.1652 19.2697 40.9732 19.0793 40.8557 18.8467C40.6789 18.4971 40.6871 18.0848 40.6844 17.7027L40.6837 17.4458V2.55595L40.6844 2.30026C40.685 2.21274 40.6856 2.12522 40.6881 2.0377C40.6966 1.74 40.7186 1.42424 40.8557 1.15436C40.973 0.923432 41.1665 0.729824 41.3976 0.612983C41.6703 0.475137 41.9804 0.453945 42.2804 0.44538C42.368 0.44288 42.4555 0.442255 42.5424 0.44163L42.8668 0.441004H69.1344L69.4576 0.44163C69.8391 0.44238 70.255 0.435691 70.6035 0.612921C70.836 0.731074 71.0269 0.923433 71.1455 1.15555C71.3234 1.50382 71.3146 1.91948 71.3168 2.30083C71.3174 2.40835 71.3174 2.51588 71.3174 2.62403V17.3783H71.3174Z" fill="white"/>
<path d="M47.5522 7.20607C47.4941 6.75533 47.7191 6.27584 47.9736 5.98265C48.2568 5.63944 48.7463 5.395 49.1476 5.375C49.1964 5.84511 49.0107 6.30522 48.7363 6.64781C48.4524 6.98101 48.0029 7.24482 47.5522 7.20607Z" fill="black"/>
<path d="M50.8008 11.2093C50.7908 11.2387 50.6351 11.7757 50.2544 12.3321C49.9224 12.8204 49.5811 13.2986 49.0347 13.3086C48.5077 13.3186 48.3321 12.996 47.7269 12.996C47.1218 12.996 46.9267 13.2986 46.4291 13.3186C45.9021 13.338 45.5026 12.8004 45.1707 12.3127C44.4874 11.3263 43.9704 9.53019 44.6731 8.31928C45.0144 7.71413 45.6389 7.33342 46.3122 7.32341C46.8292 7.31404 47.3074 7.66537 47.62 7.66537C47.932 7.66537 48.4877 7.25527 49.1416 7.29466C49.3954 7.31404 50.1275 7.39218 50.5957 8.08485C50.557 8.11485 49.7274 8.59309 49.7374 9.59834C49.7468 10.7992 50.7908 11.1993 50.8008 11.2093Z" fill="black"/>
<path d="M54.8353 5.93359H52.0896V13.2572H53.2261V10.7554H54.7996C56.2362 10.7554 57.2458 9.77077 57.2458 8.33917C57.2458 6.9132 56.2569 5.93359 54.8353 5.93359ZM54.5308 9.80077H53.2261V6.89257H54.5358C55.5204 6.89257 56.0837 7.42083 56.0837 8.34417C56.0837 9.26814 55.5204 9.80077 54.5308 9.80077Z" fill="black"/>
<path d="M59.9585 7.82129C58.6389 7.82129 57.8168 8.53209 57.7561 9.49607H58.7914C58.8877 9.01908 59.2834 8.71463 59.9179 8.71463C60.5881 8.71463 60.9888 9.06971 60.9888 9.66361V10.075L59.5272 10.1612C58.2581 10.2325 57.543 10.8058 57.543 11.7397C57.543 12.6987 58.2738 13.3489 59.319 13.3489C60.0198 13.3489 60.695 12.9732 61.0044 12.3793H61.0294V13.257H62.0803V9.57734C62.0803 8.50645 61.2532 7.82129 59.9585 7.82129ZM60.9888 11.2577C60.9888 11.9529 60.3899 12.4805 59.6235 12.4805C59.0352 12.4805 58.6495 12.1761 58.6495 11.7091C58.6495 11.2527 59.0196 10.9633 59.6741 10.9177L60.9888 10.8364V11.2577Z" fill="black"/>
<path d="M67.6105 7.91797L65.6107 13.5368C65.1537 14.8309 64.626 15.2472 63.5195 15.2472C63.4283 15.2472 63.1538 15.2372 63.0732 15.2222V14.3339C63.1538 14.3539 63.3364 14.3539 63.4283 14.3539C63.9359 14.3539 64.2097 14.1407 64.3772 13.5925C64.3772 13.5825 64.4735 13.268 64.4735 13.263L62.5449 7.91797H63.7327L65.083 12.2628H65.103L66.4534 7.91797H67.6105Z" fill="black"/>
<path d="M48.7363 6.64781C48.4524 6.98101 48.0029 7.24482 47.5522 7.20607C47.4941 6.75533 47.7191 6.27584 47.9736 5.98265C48.2568 5.63944 48.7463 5.395 49.1476 5.375C49.1964 5.84511 49.0107 6.30522 48.7363 6.64781Z" fill="white"/>
<path d="M50.8008 11.2093C50.7908 11.2387 50.6351 11.7757 50.2544 12.3321C49.9224 12.8204 49.5811 13.2986 49.0347 13.3086C48.5077 13.3186 48.3321 12.996 47.7269 12.996C47.1218 12.996 46.9267 13.2986 46.4291 13.3186C45.9021 13.338 45.5026 12.8004 45.1707 12.3127C44.4874 11.3263 43.9704 9.53019 44.6731 8.31928C45.0144 7.71413 45.6389 7.33342 46.3122 7.32341C46.8292 7.31404 47.3074 7.66537 47.62 7.66537C47.932 7.66537 48.4877 7.25527 49.1416 7.29466C49.3954 7.31404 50.1275 7.39218 50.5957 8.08485C50.557 8.11485 49.7274 8.59309 49.7374 9.59834C49.7468 10.7992 50.7908 11.1993 50.8008 11.2093Z" fill="white"/>
<path d="M54.8345 5.93359H52.0889V13.2572H53.2254V10.7554H54.7989C56.2355 10.7554 57.2451 9.77077 57.2451 8.33917C57.2451 6.9132 56.2561 5.93359 54.8345 5.93359ZM54.5301 9.80077H53.2254V6.89257H54.5351C55.5197 6.89257 56.083 7.42083 56.083 8.34417C56.083 9.26814 55.5197 9.80077 54.5301 9.80077Z" fill="white"/>
<path d="M59.9585 7.82129C58.6389 7.82129 57.8168 8.53209 57.7561 9.49607H58.7914C58.8877 9.01908 59.2834 8.71463 59.9179 8.71463C60.5881 8.71463 60.9888 9.06971 60.9888 9.66361V10.075L59.5272 10.1612C58.2581 10.2325 57.543 10.8058 57.543 11.7397C57.543 12.6987 58.2738 13.3489 59.319 13.3489C60.0198 13.3489 60.695 12.9732 61.0044 12.3793H61.0294V13.257H62.0803V9.57734C62.0803 8.50645 61.2532 7.82129 59.9585 7.82129ZM60.9888 11.2577C60.9888 11.9529 60.3899 12.4805 59.6235 12.4805C59.0352 12.4805 58.6495 12.1761 58.6495 11.7091C58.6495 11.2527 59.0196 10.9633 59.6741 10.9177L60.9888 10.8364V11.2577Z" fill="white"/>
<path d="M66.4523 7.91797L65.1019 12.2628H65.0819L63.7316 7.91797H62.5438L64.4724 13.263C64.4724 13.268 64.3761 13.5825 64.3761 13.5925C64.2086 14.1407 63.9348 14.3539 63.4272 14.3539C63.3353 14.3539 63.1527 14.3539 63.0721 14.3339V15.2222C63.1527 15.2372 63.4272 15.2472 63.5184 15.2472C64.6249 15.2472 65.1526 14.8309 65.6096 13.5368L67.6094 7.91797H66.4523Z" fill="white"/>
</g>
<g clip-path="url(#clip1_0_765)">
<path d="M106.727 0.136719H94H81.2727C80.5698 0.136719 80 0.706563 80 1.40946V19.5913C80 20.2942 80.5698 20.864 81.2727 20.864H94H106.727C107.43 20.864 108 20.2942 108 19.5913V1.40946C108 0.706563 107.43 0.136719 106.727 0.136719Z" fill="#DEDEE0"/>
<path d="M89.5918 10.4893C89.5941 11.7995 90.4103 12.9163 91.5657 13.3601V7.61621C90.4103 8.06295 89.5941 9.17973 89.5918 10.4893Z" fill="#3D6DEB"/>
<path d="M99.2394 6.43516C98.1503 5.43252 96.6615 4.85742 95.1498 4.85742H94.0006H92.6512C89.4116 4.85742 86.9688 7.30239 86.9688 10.5446C86.9688 13.6306 89.5082 16.1413 92.6295 16.1413H94.0006H95.1481L95.176 16.1414C95.1761 16.1414 95.1761 16.1414 95.1763 16.1414C96.6535 16.1414 98.1384 15.544 99.2501 14.5024C100.4 13.4255 101.033 12.02 101.033 10.5448C101.033 8.9592 100.396 7.49976 99.2394 6.43516ZM94.0006 14.8031C93.5791 14.9338 93.1315 15.0044 92.6677 15.0044C90.1786 15.0044 88.1535 12.9792 88.1535 10.4899C88.1535 8.00053 90.1786 5.97534 92.6677 5.97534C93.1315 5.97534 93.5791 6.04594 94.0006 6.17659C95.84 6.74677 97.1799 8.46472 97.1799 10.4899C97.1799 12.515 95.84 14.2329 94.0006 14.8031Z" fill="#3D6DEB"/>
<path d="M94.0002 7.71777C93.9241 7.68102 93.8468 7.64667 93.7676 7.61621V13.3601C93.8469 13.3296 93.9242 13.2953 94.0002 13.2587C95.0308 12.7614 95.7412 11.7096 95.7434 10.4894C95.7412 9.26974 95.0308 8.21586 94.0002 7.71777Z" fill="#3D6DEB"/>
<path d="M94.0005 6.17684C93.5789 6.04619 93.1314 5.97559 92.6675 5.97559C90.1784 5.97559 88.1533 8.00083 88.1533 10.4901C88.1533 12.9794 90.1784 15.0046 92.6675 15.0046C93.1314 15.0046 93.5789 14.934 94.0005 14.8034C95.8398 14.2332 97.1797 12.5153 97.1797 10.4901C97.1797 8.46485 95.8398 6.74706 94.0005 6.17684ZM91.5657 13.3609C90.4103 12.9172 89.5941 11.8003 89.5918 10.4903C89.5941 9.1806 90.4103 8.06383 91.5657 7.61703V13.3609ZM94.0005 13.2595C93.9244 13.2962 93.8471 13.3305 93.7679 13.3609V7.61698C93.8472 7.64744 93.9245 7.68189 94.0005 7.71853C95.031 8.21657 95.7415 9.27051 95.7437 10.4902C95.7415 11.7104 95.031 12.7622 94.0005 13.2595Z" fill="#DEDEE0"/>
<path d="M92.6289 16.1423C89.5075 16.1423 86.9681 13.6316 86.9681 10.5457C86.9681 7.30346 89.411 4.85844 92.6506 4.85844H94V0.136719H81.2727C80.5698 0.136719 80 0.706563 80 1.40946V19.5913C80 20.2942 80.5698 20.864 81.2727 20.864H94V16.1422L92.6289 16.1423Z" fill="#C3C3C7"/>
</g>
<rect x="116.5" y="0.5" width="31" height="19" rx="1.5" fill="white"/>
<rect x="116.5" y="0.5" width="31" height="19" rx="1.5" stroke="#D1D1D1"/>
<path d="M127.074 13.9767L128.608 5.40527H131.005L129.519 13.9767H127.074Z" fill="#3C58BF"/>
<path d="M127.074 13.9767L129.04 5.40527H131.005L129.519 13.9767H127.074Z" fill="#293688"/>
<path d="M138.196 5.50009C137.717 5.30962 136.95 5.11914 135.991 5.11914C133.594 5.11914 131.868 6.30962 131.868 8.0239C131.868 9.30962 133.067 9.97628 134.025 10.4049C134.984 10.8334 135.272 11.1191 135.272 11.5001C135.272 12.0715 134.505 12.3572 133.834 12.3572C132.875 12.3572 132.348 12.2144 131.533 11.881L131.197 11.7382L130.861 13.6906C131.437 13.9287 132.491 14.1668 133.594 14.1668C136.135 14.1668 137.813 12.9763 137.813 11.1668C137.813 10.1668 137.19 9.40485 135.751 8.78581C134.888 8.35724 134.361 8.11914 134.361 7.69057C134.361 7.30962 134.793 6.92866 135.751 6.92866C136.566 6.92866 137.142 7.07152 137.573 7.262L137.813 7.35724L138.196 5.50009Z" fill="#3C58BF"/>
<path d="M138.196 5.50009C137.717 5.30962 136.95 5.11914 135.991 5.11914C133.594 5.11914 132.3 6.30962 132.3 8.0239C132.3 9.30962 133.067 9.97628 134.025 10.4049C134.984 10.8334 135.272 11.1191 135.272 11.5001C135.272 12.0715 134.505 12.3572 133.834 12.3572C132.875 12.3572 132.348 12.2144 131.533 11.881L131.197 11.7382L130.861 13.6906C131.437 13.9287 132.491 14.1668 133.594 14.1668C136.135 14.1668 137.813 12.9763 137.813 11.1668C137.813 10.1668 137.19 9.40485 135.751 8.78581C134.888 8.35724 134.361 8.11914 134.361 7.69057C134.361 7.30962 134.793 6.92866 135.751 6.92866C136.566 6.92866 137.142 7.07152 137.573 7.262L137.813 7.35724L138.196 5.50009Z" fill="#293688"/>
<path d="M142.319 5.40527C141.743 5.40527 141.312 5.45289 141.072 6.02432L137.477 13.9767H140.065L140.545 12.5481H143.613L143.901 13.9767H146.202L144.188 5.40527H142.319ZM141.216 11.1196C141.36 10.691 142.175 8.59575 142.175 8.59575C142.175 8.59575 142.366 8.07194 142.51 7.73861L142.654 8.54813C142.654 8.54813 143.133 10.691 143.229 11.1672H141.216V11.1196Z" fill="#3C58BF"/>
<path d="M142.894 5.40527C142.319 5.40527 141.887 5.45289 141.647 6.02432L137.477 13.9767H140.065L140.545 12.5481H143.613L143.901 13.9767H146.202L144.188 5.40527H142.894ZM141.216 11.1196C141.408 10.6434 142.175 8.59575 142.175 8.59575C142.175 8.59575 142.366 8.07194 142.51 7.73861L142.654 8.54813C142.654 8.54813 143.133 10.691 143.229 11.1672H141.216V11.1196Z" fill="#293688"/>
<path d="M122.664 11.4045L122.424 10.1664C121.993 8.73786 120.602 7.16643 119.068 6.40453L121.226 14.0236H123.814L127.697 5.45215H125.109L122.664 11.4045Z" fill="#3C58BF"/>
<path d="M122.664 11.4045L122.424 10.1664C121.993 8.73786 120.602 7.16643 119.068 6.40453L121.226 14.0236H123.814L127.697 5.45215H125.588L122.664 11.4045Z" fill="#293688"/>
<path d="M116 5.40527L116.431 5.50051C119.5 6.2148 121.609 8.02432 122.424 10.1672L121.561 6.11956C121.417 5.54813 120.986 5.40527 120.458 5.40527H116Z" fill="#FFBC00"/>
<path d="M116 5.40527C119.068 6.11956 121.609 7.9767 122.424 10.1196L121.609 6.73861C121.465 6.16718 120.986 5.83385 120.458 5.83385L116 5.40527Z" fill="#F7981D"/>
<path d="M116 5.40527C119.068 6.11956 121.609 7.9767 122.424 10.1196L121.849 8.26242C121.705 7.69099 121.513 7.11956 120.842 6.88146L116 5.40527Z" fill="#ED7C00"/>
<path d="M125.061 11.1193L123.431 9.50028L122.664 11.3098L122.472 10.1193C122.04 8.69076 120.65 7.11933 119.116 6.35742L121.273 13.9765H123.862L125.061 11.1193Z" fill="#051244"/>
<path d="M129.519 13.9771L127.458 11.8818L127.074 13.9771H129.519Z" fill="#051244"/>
<path d="M135.032 11.0244C135.224 11.2149 135.32 11.3577 135.272 11.5482C135.272 12.1197 134.505 12.4054 133.833 12.4054C132.875 12.4054 132.347 12.2625 131.532 11.9292L131.197 11.7863L130.861 13.7387C131.436 13.9768 132.491 14.2149 133.594 14.2149C135.128 14.2149 136.374 13.7863 137.093 13.0244L135.032 11.0244Z" fill="#051244"/>
<path d="M137.812 13.9764H140.066L140.545 12.5478H143.613L143.901 13.9764H146.202L145.387 10.5002L142.511 7.73828L142.654 8.50019C142.654 8.50019 143.134 10.643 143.23 11.1192H141.216C141.408 10.643 142.175 8.59542 142.175 8.59542C142.175 8.59542 142.367 8.07161 142.511 7.73828" fill="#051244"/>
<g clip-path="url(#clip2_0_765)">
<path d="M158 0H186C187.104 0 188 0.779061 188 1.73989V18.261C188 19.2209 187.104 20 186 20H158C156.895 20.0001 156 19.2209 156 18.2611V1.73989C156 0.779061 156.896 0 158 0Z" fill="#26A6D1"/>
<path d="M161.16 7L158 12.1686H161.783L162.252 11.3445H163.324L163.793 12.1686H167.957V11.5396L168.328 12.1686H170.482L170.853 11.5263V12.1686H179.513L180.566 11.3659L181.552 12.1686L186 12.1752L182.83 9.59871L186 7H181.621L180.596 7.78785L179.641 7H170.22L169.411 8.33405L168.583 7H164.808V7.60757L164.388 7H161.16ZM161.892 7.73394H163.736L165.832 11.2388V7.73394H167.852L169.471 10.2469L170.963 7.73394H172.973V11.4427H171.75L171.74 8.53655L169.957 11.4427H168.863L167.07 8.53655V11.4427H164.554L164.077 10.6113H161.5L161.024 11.442H159.676L161.892 7.73394ZM174.092 7.73394H179.065L180.586 8.94826L182.156 7.73394H183.677L181.366 9.59798L183.677 11.4405H182.087L180.566 10.2121L178.988 11.4405H174.092V7.73394ZM162.789 8.36145L161.94 9.84263H163.637L162.789 8.36145ZM175.32 8.50185V9.17889H178.033V9.9335H175.32V10.6726H178.363L179.777 9.58396L178.423 8.5012H175.32V8.50185Z" fill="white"/>
</g>
<rect x="156.5" y="0.5" width="31" height="19" rx="1.5" stroke="#D1D1D1"/>
<rect x="196.5" y="0.5" width="31" height="19" rx="1.5" fill="white"/>
<rect x="196.5" y="0.5" width="31" height="19" rx="1.5" stroke="#D1D1D1"/>
<path d="M219.282 7.89151C218.645 7.89151 218.136 8.04489 217.711 8.12158L217.584 9.00351C217.796 8.92682 218.391 8.77344 218.9 8.73509C219.41 8.73509 219.707 8.81178 219.622 9.23357C218.093 9.23357 217.074 9.50199 216.862 10.4223C216.565 11.956 218.433 11.9944 219.155 11.3042L219.07 11.726H220.429L221.023 9.23357C221.236 8.19827 220.217 7.85317 219.282 7.89151ZM219.367 10.4606C219.282 10.7674 218.985 10.8824 218.645 10.9207C218.348 10.9207 218.093 10.7674 218.263 10.4606C218.433 10.2305 218.815 10.2305 219.112 10.2305C219.197 10.2305 219.325 10.2305 219.452 10.2305C219.41 10.1922 219.367 10.3456 219.367 10.4606Z" fill="#32A6CE"/>
<path d="M217.584 9.00334C217.796 8.92665 218.391 8.77327 218.9 8.73493C219.41 8.73493 219.707 8.81161 219.622 9.2334C218.093 9.2334 217.074 9.50182 216.862 10.4221C216.565 11.9559 218.433 11.9942 219.155 11.304L219.07 11.7258H220.429L221.023 9.2334C221.278 8.1981 220.217 7.92969 219.282 7.92969M219.367 10.4604C219.282 10.7672 218.985 10.8822 218.645 10.9206C218.348 10.9206 218.093 10.7672 218.263 10.4604C218.433 10.2304 218.815 10.2304 219.112 10.2304C219.197 10.2304 219.325 10.2304 219.452 10.2304C219.41 10.192 219.367 10.3454 219.367 10.4604Z" fill="#1A80AD"/>
<path d="M222.17 6.74023L221.066 11.725H222.425L223.572 6.74023H222.17Z" fill="#32A6CE"/>
<path d="M223.147 6.74023L221.066 11.725H222.425L223.572 6.74023H222.17H223.147Z" fill="#1A80AD"/>
<path d="M215.843 6.74023H213.338L212.234 11.725H213.72L214.102 10.1913H215.164C216.183 10.1913 217.032 9.65443 217.244 8.69581C217.457 7.58382 216.565 6.74023 215.843 6.74023ZM215.801 8.46574C215.716 8.81084 215.333 9.04091 214.951 9.04091H214.272L214.569 7.89057H215.291C215.673 7.89057 215.885 8.12064 215.801 8.46574Z" fill="#32A6CE"/>
<path d="M215.843 6.74023H214.145L212.191 11.725H213.678L214.06 10.1913H215.121C216.141 10.1913 216.99 9.65443 217.202 8.69581C217.457 7.58382 216.565 6.74023 215.843 6.74023ZM215.801 8.46574C215.716 8.81084 215.334 9.04091 214.952 9.04091H214.272L214.569 7.89057H215.291C215.674 7.89057 215.886 8.12064 215.801 8.46574Z" fill="#1A80AD"/>
<path d="M206.034 7.89151C205.397 7.89151 204.887 8.04489 204.505 8.12158L204.378 9.00351C204.548 8.92682 205.185 8.77344 205.694 8.73509C206.204 8.73509 206.501 8.81178 206.416 9.23357C204.93 9.23357 203.911 9.50199 203.698 10.4223C203.401 11.956 205.227 11.9944 205.949 11.3042L205.864 11.726H207.223L207.818 9.23357C208.03 8.19827 206.968 7.85317 206.034 7.89151ZM206.161 10.4606C206.076 10.7674 205.779 10.8824 205.439 10.9207C205.142 10.9207 204.887 10.7674 205.1 10.4606C205.27 10.2305 205.652 10.2305 205.907 10.2305C206.034 10.2305 206.119 10.2305 206.246 10.2305C206.204 10.1922 206.161 10.3456 206.161 10.4606Z" fill="#21789E"/>
<path d="M204.42 9.00334C204.59 8.92665 205.227 8.77327 205.737 8.73493C206.246 8.73493 206.543 8.81161 206.458 9.2334C204.972 9.2334 203.953 9.50182 203.741 10.4221C203.443 11.9559 205.269 11.9942 205.991 11.304L205.864 11.7258H207.223L207.817 9.2334C208.072 8.1981 207.01 7.92969 206.076 7.92969M206.161 10.4604C206.076 10.7672 205.779 10.8822 205.439 10.9206C205.142 10.9206 204.887 10.7672 205.1 10.4604C205.269 10.2304 205.652 10.2304 205.906 10.2304C206.034 10.2304 206.119 10.2304 206.246 10.2304C206.204 10.192 206.161 10.3454 206.161 10.4604Z" fill="#1A5B80"/>
<path d="M208.369 7.8916H209.728L209.94 10.0389L211.299 7.8916H212.7L209.473 13.2599H207.944L208.921 11.6494L208.369 7.8916Z" fill="#21789E"/>
<path d="M209.728 7.96829L209.94 10.0772L211.299 7.8916H212.7L209.473 13.2599H207.944L208.921 11.6877" fill="#1A5B80"/>
<path d="M202.679 6.74023H200.131L199.027 11.725H200.514L200.896 10.1913H201.957C202.977 10.1913 203.826 9.65443 204.038 8.69581C204.293 7.58382 203.401 6.74023 202.679 6.74023ZM202.637 8.46574C202.552 8.81084 202.17 9.04091 201.788 9.04091H201.108L201.405 7.89057H202.127C202.509 7.89057 202.722 8.12064 202.637 8.46574Z" fill="#21789E"/>
<path d="M202.679 6.74023H201.533L199.027 11.725H200.514L200.896 10.1913H201.957C202.977 10.1913 203.826 9.65443 204.038 8.69581C204.293 7.58382 203.401 6.74023 202.679 6.74023ZM202.637 8.46574C202.552 8.81084 202.17 9.04091 201.788 9.04091H201.108L201.405 7.89057H202.127C202.509 7.89057 202.722 8.12064 202.637 8.46574Z" fill="#1A5B80"/>
<path d="M205.779 9.2334C204.633 9.31009 203.868 9.61684 203.698 10.3837C203.401 11.9175 205.227 11.9559 205.949 11.2657L205.864 11.7258H207.223L207.435 10.8055L205.779 9.2334ZM206.161 10.4604C206.076 10.7672 205.779 10.8822 205.439 10.9206C205.142 10.9206 204.887 10.7672 205.1 10.4604C205.27 10.2304 205.652 10.2304 205.907 10.2304C206.034 10.2304 206.119 10.2304 206.246 10.2304C206.204 10.192 206.161 10.3454 206.161 10.4604Z" fill="#06435E"/>
<path d="M210.025 10.0006L209.94 10.1156L210.832 10.8825L212.701 7.8916H211.299L210.025 10.0006Z" fill="#06435E"/>
<path d="M200.513 11.7262L200.895 10.1924L199.154 11.7262H200.513Z" fill="#06435E"/>
<path d="M213.677 11.7257L214.06 10.1152V10.1536L212.319 11.7257H213.677Z" fill="#2273AA"/>
<path d="M218.986 9.2334C217.839 9.31009 217.075 9.61684 216.905 10.3837C216.608 11.9175 218.476 11.9559 219.198 11.2657L219.071 11.7258H220.43L220.642 10.8055L218.986 9.2334ZM219.368 10.4604C219.283 10.7672 218.986 10.8822 218.646 10.9206C218.349 10.9206 218.094 10.7672 218.264 10.4604C218.434 10.2304 218.816 10.2304 219.113 10.2304C219.198 10.2304 219.326 10.2304 219.453 10.2304C219.41 10.192 219.368 10.3454 219.368 10.4604Z" fill="#2273AA"/>
<path d="M222.043 9.46387L221.067 11.7262H222.426L222.808 10.1924L222.043 9.46387Z" fill="#2273AA"/>
<path d="M223.869 7.54515V7.00833H223.656V6.93164H224.208V7.00833H223.996V7.54515H223.869Z" fill="#32A6CE"/>
<path d="M224.293 7.54541V6.9319H224.42L224.59 7.35369C224.59 7.39203 224.633 7.43038 224.633 7.43038C224.633 7.39203 224.633 7.39203 224.675 7.31535L224.845 6.89355H224.972V7.50707H224.887V6.97024L224.675 7.50707H224.548L224.335 6.97024V7.50707H224.293V7.54541Z" fill="#32A6CE"/>
<g clip-path="url(#clip3_0_765)">
<path d="M268 18.1625C268 19.0953 267.153 19.8515 266.108 19.8515H237.892C236.847 19.8516 236 19.0953 236 18.1625V1.83641C236 0.903655 236.847 0.147461 237.892 0.147461H266.108C267.153 0.147461 268 0.903655 268 1.83641V18.1625Z" fill="#306FC5"/>
<path opacity="0.15" d="M237.345 18.1625V1.83641C237.345 0.903655 238.192 0.147461 239.237 0.147461H237.892C236.847 0.147461 236 0.9036 236 1.83641V18.1626C236 19.0954 236.847 19.8516 237.892 19.8516H239.237C238.192 19.8516 237.345 19.0953 237.345 18.1625Z" fill="#202121"/>
<path d="M240.662 8.03278H241.618L241.14 6.94629L240.662 8.03278Z" fill="white"/>
<path d="M245.747 11.6797V12.1842H247.355V12.7276H245.747V13.3098H247.529L248.354 12.4947L247.572 11.6797H245.747Z" fill="white"/>
<path d="M258.306 6.94629L257.785 8.03278H258.785L258.306 6.94629Z" fill="white"/>
<path d="M250.397 13.6209V11.4092L249.267 12.4957L250.397 13.6209Z" fill="white"/>
<path d="M252.526 12.0291C252.483 11.7963 252.309 11.6797 252.048 11.6797H251.135V12.3781H252.091C252.352 12.3782 252.526 12.2618 252.526 12.0291Z" fill="white"/>
<path d="M255.568 12.3008C255.655 12.2619 255.698 12.1454 255.698 12.0292C255.742 11.8742 255.655 11.7964 255.568 11.7576C255.481 11.7188 255.351 11.7188 255.22 11.7188H254.351V12.3397H255.22C255.351 12.3397 255.481 12.3397 255.568 12.3008Z" fill="white"/>
<path d="M261.826 5.9375V6.40313L261.565 5.9375H259.523V6.40313L259.262 5.9375H256.481C256.003 5.9375 255.611 6.01518 255.264 6.17037V5.9375H253.308V5.97634V6.17037C253.091 6.01523 252.83 5.9375 252.483 5.9375H245.486L245.008 6.90759L244.53 5.9375H242.965H242.313V6.40313L242.096 5.9375H242.052H240.184L239.314 7.76116L238.315 9.74007L238.297 9.77896H238.315H240.531H240.559L240.575 9.74007L240.836 9.15815H241.401L241.662 9.77896H244.182V9.74007V9.31334L244.399 9.77891H245.66L245.877 9.31334V9.74007V9.77896H246.876H251.874H251.918V8.77003H252.005C252.092 8.77003 252.092 8.77003 252.092 8.8865V9.74012H255.221V9.50731C255.481 9.62388 255.872 9.74012 256.394 9.74012H257.698L257.958 9.11942H258.567L258.827 9.74012H261.348V9.35218V9.1582L261.739 9.74012H261.826H261.87H263.782V5.9375H261.826H261.826ZM247.094 9.19704H246.659H246.398V8.9644V7.06283L246.355 7.15184V7.15078L245.344 9.19704H245.312H245.079H244.703L243.66 7.06283V9.19704H242.183L241.879 8.61501H240.401L240.097 9.19704H239.333L240.618 6.4808H241.705L242.922 9.08052V6.4808H243.182H244.073L244.093 6.5197H244.095L244.643 7.58521L245.037 8.38354L245.051 8.3433L245.92 6.48086H247.094V9.19704H247.094ZM250.092 7.06283H248.398V7.56724H250.049V8.11044H248.398V8.65385H250.092V9.23571H247.659V6.48086H250.092V7.06283ZM253.192 8.06339C253.193 8.06429 253.195 8.0649 253.196 8.06574C253.213 8.08125 253.227 8.09682 253.239 8.11172C253.322 8.20915 253.389 8.35407 253.393 8.56657C253.393 8.57026 253.393 8.57388 253.393 8.57757C253.393 8.57969 253.394 8.58153 253.394 8.58371C253.394 8.58493 253.394 8.58588 253.394 8.58705C253.395 8.60843 253.395 8.63025 253.395 8.65385V9.1971H252.743V8.88655C252.743 8.73136 252.743 8.49849 252.613 8.3433C252.572 8.30664 252.53 8.28248 252.485 8.26529C252.42 8.22762 252.296 8.22701 252.092 8.22701H251.309V9.1971H250.57V6.48086H252.222C252.613 6.48086 252.874 6.48086 253.091 6.59727C253.304 6.71144 253.433 6.90078 253.438 7.20061C253.427 7.61356 253.131 7.84012 252.917 7.91652C252.917 7.91652 253.062 7.94258 253.192 8.06339ZM254.656 9.19704H253.917V6.4808H254.656V9.19704ZM263.13 9.19704H262.174L260.783 7.1404V8.84771L260.779 8.84369V9.19872H260.044V9.1971H259.306L259.045 8.61507H257.524L257.263 9.23577H256.437C256.09 9.23577 255.655 9.15826 255.394 8.92545C255.134 8.69263 255.003 8.3822 255.003 7.87785C255.003 7.48984 255.09 7.10156 255.394 6.79124C255.611 6.55826 256.003 6.48086 256.481 6.48086H257.176V7.06283H256.481C256.22 7.06283 256.09 7.10151 255.916 7.21814C255.785 7.33449 255.698 7.56724 255.698 7.83884C255.698 8.14933 255.742 8.3433 255.916 8.49849C256.046 8.61507 256.22 8.65391 256.437 8.65391H256.741L257.741 6.51981H258.176H258.827L260.044 9.11953V8.98694V8.11055V8.03304V6.51987H261.131L262.391 8.42109V6.51987H263.13V9.19715H263.13V9.19704Z" fill="white"/>
<path d="M252.573 7.61275C252.586 7.60064 252.597 7.58691 252.607 7.57118C252.646 7.51554 252.691 7.41532 252.667 7.27854C252.666 7.26599 252.663 7.25438 252.66 7.24316C252.66 7.24004 252.66 7.23731 252.659 7.23418L252.658 7.23424C252.637 7.16777 252.582 7.12693 252.526 7.10215C252.439 7.06348 252.309 7.06348 252.179 7.06348H251.309V7.6844H252.179C252.309 7.6844 252.439 7.6844 252.526 7.64551C252.54 7.63959 252.551 7.63156 252.562 7.62246L252.562 7.62296C252.562 7.62296 252.567 7.61878 252.573 7.61275Z" fill="white"/>
<path d="M265.694 13.0775C265.694 12.8059 265.608 12.5342 265.477 12.3403V10.5942H265.475V10.4776C265.475 10.4776 263.654 10.4776 263.383 10.4776C263.112 10.4776 262.783 10.7104 262.783 10.7104V10.4776H260.784C260.479 10.4776 260.088 10.5553 259.914 10.7104V10.4776H256.351V10.5942V10.7104C256.09 10.5165 255.612 10.4776 255.395 10.4776H253.048V10.5942V10.7103C252.831 10.5164 252.309 10.4775 252.048 10.4775H249.441L248.832 11.0596L248.267 10.4775H248.085H247.789H244.356V10.5941V10.9006V14.3968H248.181L248.809 13.8356L249.354 14.3968H249.397H251.601H251.701H251.744H251.788V14.0088V13.5044H252.005C252.309 13.5044 252.7 13.5044 253.004 13.3878V14.3578V14.4356H254.96V14.3578V13.4266H255.047C255.177 13.4266 255.177 13.4266 255.177 13.5431V14.3578V14.4356H261.088C261.479 14.4356 261.87 14.3578 262.087 14.2026V14.3578V14.4356H263.956C264.347 14.4356 264.738 14.3968 264.999 14.2415C265.399 14.0271 265.651 13.6477 265.689 13.1952C265.691 13.1818 265.693 13.1684 265.694 13.155L265.692 13.1528C265.693 13.1277 265.694 13.1029 265.694 13.0775ZM252.005 12.8448H251.136V12.9609V13.1938V13.4267V13.8535H249.707L248.876 12.9998L248.873 13.0027L248.832 12.9609L247.876 13.8535H245.095V11.1374H247.92L248.692 11.8922L248.854 12.0502L248.876 12.0298L249.789 11.1375H252.092C252.539 11.1375 253.039 11.236 253.229 11.642C253.252 11.7225 253.265 11.8119 253.265 11.9134C253.265 12.6894 252.657 12.8448 252.005 12.8448ZM256.351 12.8059C256.438 12.922 256.481 13.0775 256.481 13.3104V13.8535H255.742V13.5044C255.742 13.3489 255.742 13.0775 255.612 12.9609C255.525 12.8448 255.351 12.8448 255.091 12.8448H254.308V13.8535H253.57V11.0986H255.221C255.568 11.0986 255.873 11.0986 256.09 11.2149C256.307 11.3314 256.481 11.5254 256.481 11.8359C256.481 12.2626 256.177 12.4954 255.96 12.5731C256.177 12.6504 256.307 12.7283 256.351 12.8059ZM259.35 11.6804H257.654V12.1848H259.306V12.7282H257.654V13.2715H259.35V13.8535H256.916V11.0985H259.35V11.6804ZM261.175 13.8535H259.784V13.2716H261.175C261.305 13.2716 261.392 13.2716 261.479 13.1939C261.523 13.155 261.566 13.0775 261.566 12.9999C261.566 12.9221 261.523 12.8448 261.479 12.8059C261.435 12.7672 261.348 12.7283 261.218 12.7283C260.523 12.6895 259.697 12.7283 259.697 11.8747C259.697 11.4867 259.958 11.0598 260.74 11.0598H262.174V11.7193H260.827C260.697 11.7193 260.61 11.7193 260.523 11.7582C260.436 11.7971 260.436 11.8747 260.436 11.9523C260.436 12.0687 260.523 12.1076 260.61 12.1461C260.697 12.185 260.784 12.185 260.87 12.185H261.262C261.653 12.185 261.913 12.2626 262.087 12.4178C262.218 12.5343 262.305 12.7283 262.305 12.9999C262.305 13.5817 261.913 13.8535 261.175 13.8535ZM264.912 13.5817C264.739 13.7371 264.434 13.8535 263.999 13.8535H262.609V13.2716H263.999C264.13 13.2716 264.217 13.2716 264.304 13.1939C264.347 13.155 264.391 13.0775 264.391 12.9999C264.391 12.9221 264.347 12.8448 264.304 12.8059C264.26 12.7672 264.173 12.7283 264.043 12.7283C263.348 12.6895 262.522 12.7283 262.522 11.8748C262.522 11.506 262.758 11.1729 263.341 11.0739C263.411 11.0653 263.484 11.0598 263.565 11.0598H264.999V11.7193H264.043H263.695H263.652C263.521 11.7193 263.435 11.7193 263.348 11.7582C263.304 11.7971 263.261 11.8747 263.261 11.9523C263.261 12.0687 263.304 12.1076 263.435 12.1461C263.521 12.185 263.608 12.185 263.695 12.185H263.739H264.086C264.276 12.185 264.42 12.2059 264.551 12.2471C264.672 12.286 265.07 12.4452 265.159 12.8606C265.167 12.9042 265.173 12.9496 265.173 12.9999C265.173 13.2327 265.086 13.4267 264.912 13.5817Z" fill="white"/>
</g>
<rect x="236.5" y="0.5" width="31" height="19" rx="1.5" stroke="#D1D1D1"/>
<defs>
<clipPath id="clip0_0_765">
<rect width="32" height="20" fill="white" transform="translate(40)"/>
</clipPath>
<clipPath id="clip1_0_765">
<rect width="28" height="21" fill="white" transform="translate(80)"/>
</clipPath>
<clipPath id="clip2_0_765">
<rect x="156" width="32" height="20" rx="2" fill="white"/>
</clipPath>
<clipPath id="clip3_0_765">
<rect x="236" width="32" height="20" rx="2" fill="white"/>
</clipPath>
</defs>
</svg>
