<svg width="114" height="20" viewBox="0 0 114 20" fill="none" xmlns="http://www.w3.org/2000/svg">
<path d="M8.07999 11.04C8.01999 11.04 6.69999 11.04 6.09999 11.04C5.77999 11.04 5.67999 10.92 5.67999 10.62C5.67999 9.82002 5.67999 9.00002 5.67999 8.20002C5.67999 7.88002 5.79999 7.78002 6.09999 7.78002H8.07999C8.07999 7.72002 8.07999 6.56002 8.07999 6.02002C8.07999 5.22002 8.21999 4.46002 8.61999 3.76002C9.03999 3.04002 9.63999 2.56002 10.4 2.28002C10.9 2.10002 11.4 2.02002 11.94 2.02002H13.9C14.18 2.02002 14.3 2.14002 14.3 2.42002V4.70002C14.3 4.98002 14.18 5.10002 13.9 5.10002C13.36 5.10002 12.82 5.10002 12.28 5.12002C11.74 5.12002 11.46 5.38002 11.46 5.94002C11.44 6.54002 11.46 7.12002 11.46 7.74002H13.78C14.1 7.74002 14.22 7.86002 14.22 8.18002V10.6C14.22 10.92 14.12 11.02 13.78 11.02C13.06 11.02 11.52 11.02 11.46 11.02V17.54C11.46 17.88 11.36 18 11 18C10.16 18 9.33999 18 8.49999 18C8.19999 18 8.07999 17.88 8.07999 17.58C8.07999 15.48 8.07999 11.1 8.07999 11.04Z" fill="#060606"/>
<path d="M49.98 5.04C49.38 5.3 48.76 5.48 48.1 5.56C48.78 5.16 49.3 4.52 49.54 3.74C48.9 4.12 48.2 4.38 47.46 4.54C46.86 3.9 46 3.5 45.06 3.5C43.24 3.5 41.78 4.98 41.78 6.78C41.78 7.04 41.8 7.28 41.86 7.52C39.14 7.4 36.74 6.08 35.12 4.1C33.96 6.18 35.26 7.9 36.12 8.48C35.6 8.48 35.08 8.32 34.64 8.08C34.64 9.7 35.78 11.04 37.26 11.34C36.94 11.44 36.22 11.5 35.78 11.4C36.2 12.7 37.42 13.66 38.84 13.68C37.72 14.56 36.08 15.26 33.98 15.04C35.44 15.98 37.16 16.52 39.02 16.52C45.06 16.52 48.34 11.52 48.34 7.2C48.34 7.06 48.34 6.92 48.32 6.78C49 6.28 49.56 5.7 49.98 5.04Z" fill="#060606"/>
<path d="M82 18.0001V12.1401C82 9.26006 81.38 7.06006 78.02 7.06006C76.4 7.06006 75.32 7.94006 74.88 8.78006H74.84V7.32006H71.66V18.0001H74.98V12.7001C74.98 11.3001 75.24 9.96006 76.96 9.96006C78.66 9.96006 78.68 11.5401 78.68 12.7801V17.9801H82V18.0001Z" fill="#060606"/>
<path d="M66.26 7.32007H69.58V18.0001H66.26V7.32007Z" fill="#060606"/>
<path d="M67.92 2C66.86 2 66 2.86 66 3.92C66 4.98 66.86 5.86 67.92 5.86C68.98 5.86 69.84 4.98 69.84 3.92C69.84 2.86 68.98 2 67.92 2Z" fill="#060606"/>
<g clip-path="url(#clip0_0_593)">
<path d="M109.032 0H100.967C98.2283 0 96 2.2284 96 4.96732V13.0326C96 15.7716 98.2283 17.9999 100.967 17.9999H109.032C111.772 17.9999 114 15.7715 114 13.0326V4.96732C114 2.2284 111.772 0 109.032 0ZM112.403 13.0326C112.403 14.891 110.891 16.4029 109.033 16.4029H100.967C99.1089 16.403 97.597 14.891 97.597 13.0326V4.96732C97.597 3.10901 99.1089 1.59704 100.967 1.59704H109.032C110.891 1.59704 112.403 3.10901 112.403 4.96732V13.0326H112.403Z" fill="#060606"/>
<path d="M105 4.36206C102.442 4.36206 100.362 6.44268 100.362 9.00018C100.362 11.5576 102.442 13.6381 105 13.6381C107.557 13.6381 109.638 11.5576 109.638 9.00018C109.638 6.44268 107.557 4.36206 105 4.36206ZM105 12.0409C103.323 12.0409 101.959 10.6769 101.959 9.00007C101.959 7.32318 103.323 5.95899 105 5.95899C106.677 5.95899 108.041 7.32318 108.041 9.00007C108.041 10.6769 106.677 12.0409 105 12.0409Z" fill="#060606"/>
<path d="M109.833 3.00781C109.525 3.00781 109.223 3.13238 109.005 3.35064C108.787 3.56784 108.661 3.87021 108.661 4.17897C108.661 4.48678 108.787 4.78904 109.005 5.0073C109.223 5.2245 109.525 5.35013 109.833 5.35013C110.141 5.35013 110.443 5.2245 110.661 5.0073C110.879 4.78904 111.004 4.48667 111.004 4.17897C111.004 3.87021 110.879 3.56784 110.661 3.35064C110.444 3.13238 110.141 3.00781 109.833 3.00781Z" fill="#060606"/>
</g>
<defs>
<clipPath id="clip0_0_593">
<rect width="18" height="18" fill="white" transform="translate(96)"/>
</clipPath>
</defs>
</svg>
