<svg width="17" height="14" viewBox="0 0 17 14" fill="none" xmlns="http://www.w3.org/2000/svg">
<path d="M16.48 2.04C15.88 2.3 15.26 2.48 14.6 2.56C15.28 2.16 15.8 1.52 16.04 0.74C15.4 1.12 14.7 1.38 13.96 1.54C13.36 0.9 12.5 0.5 11.56 0.5C9.73998 0.5 8.27998 1.98 8.27998 3.78C8.27998 4.04 8.29998 4.28 8.35998 4.52C5.63998 4.4 3.23998 3.08 1.61998 1.1C0.459981 3.18 1.75998 4.9 2.61998 5.48C2.09998 5.48 1.57998 5.32 1.13998 5.08C1.13998 6.7 2.27998 8.04 3.75998 8.34C3.43998 8.44 2.71998 8.5 2.27998 8.4C2.69998 9.7 3.91998 10.66 5.33998 10.68C4.21998 11.56 2.57998 12.26 0.47998 12.04C1.93998 12.98 3.65998 13.52 5.51998 13.52C11.56 13.52 14.84 8.52 14.84 4.2C14.84 4.06 14.84 3.92 14.82 3.78C15.5 3.28 16.06 2.7 16.48 2.04Z" fill="white"/>
</svg>
