<svg width="94" height="159" viewBox="0 0 94 159" fill="none" xmlns="http://www.w3.org/2000/svg">
<path d="M48.3438 0.078125C48.6707 0.0815887 48.9958 0.128021 49.3106 0.216248C50.0279 0.425461 50.658 0.861664 51.1062 1.45938C51.5545 2.0571 51.7969 2.7841 51.7969 3.53125V70.6427H89.7812C90.6971 70.6427 91.5754 71.0065 92.223 71.6541C92.8706 72.3017 93.2344 73.18 93.2344 74.0959V155.469C93.2344 156.385 92.8706 157.263 92.223 157.91C91.5754 158.558 90.6971 158.922 89.7812 158.922H3.45312C2.5373 158.922 1.65898 158.558 1.01139 157.91C0.363808 157.263 0 156.385 0 155.469V74.1649C-0.000152588 73.5109 0.185455 72.8702 0.535233 72.3175L45.4259 1.68382C45.7374 1.19186 46.1683 0.786682 46.6784 0.505951C47.1886 0.225204 47.7614 0.0780334 48.3438 0.078125ZM86.3281 77.618H48.3438C47.4279 77.618 46.5496 77.2542 45.902 76.6066C45.2544 75.9591 44.8906 75.0808 44.8906 74.1649V15.4618L6.90625 75.1836V152.016H86.3281V77.618Z" fill="#C0C0C0"/>
</svg>
